<svg id="visual" viewBox="0 0 900 600" width="900" height="600" xmlns="http://www.w3.org/2000/svg" xmlns:xlink="http://www.w3.org/1999/xlink" version="1.1"><defs><linearGradient id="grad1_0" x1="33.3%" y1="0%" x2="100%" y2="100%"><stop offset="20%" stop-color="#001220" stop-opacity="1"></stop><stop offset="80%" stop-color="#001220" stop-opacity="1"></stop></linearGradient></defs><defs><linearGradient id="grad2_0" x1="0%" y1="0%" x2="66.7%" y2="100%"><stop offset="20%" stop-color="#001220" stop-opacity="1"></stop><stop offset="80%" stop-color="#001220" stop-opacity="1"></stop></linearGradient></defs><g transform="translate(900, 0)"><path d="M0 243.4C-32.4 237.2 -64.9 231.1 -89.2 215.3C-113.5 199.4 -129.7 173.8 -153.4 153.4C-177.2 133.1 -208.6 117.8 -224.8 93.1C-241.1 68.4 -242.2 34.2 -243.4 0L0 0Z" fill="#05a8aa"></path></g><g transform="translate(0, 600)"><path d="M0 -243.4C28.5 -232.4 56.9 -221.4 87.6 -211.6C118.3 -201.7 151.2 -192.9 172.1 -172.1C192.9 -151.2 201.7 -118.3 211.6 -87.6C221.4 -56.9 232.4 -28.5 243.4 0L0 0Z" fill="#05a8aa"></path></g></svg>