<svg id="visual" viewBox="0 0 900 600" width="900" height="600" xmlns="http://www.w3.org/2000/svg" xmlns:xlink="http://www.w3.org/1999/xlink" version="1.1"><path d="M0 385L21.5 388C43 391 86 397 128.8 401.8C171.7 406.7 214.3 410.3 257.2 411.8C300 413.3 343 412.7 385.8 404.2C428.7 395.7 471.3 379.3 514.2 379.5C557 379.7 600 396.3 642.8 396.3C685.7 396.3 728.3 379.7 771.2 380.8C814 382 857 401 878.5 410.5L900 420L900 601L878.5 601C857 601 814 601 771.2 601C728.3 601 685.7 601 642.8 601C600 601 557 601 514.2 601C471.3 601 428.7 601 385.8 601C343 601 300 601 257.2 601C214.3 601 171.7 601 128.8 601C86 601 43 601 21.5 601L0 601Z" fill="#f3d6ce"></path><path d="M0 468L21.5 469.3C43 470.7 86 473.3 128.8 472.3C171.7 471.3 214.3 466.7 257.2 467.3C300 468 343 474 385.8 469.7C428.7 465.3 471.3 450.7 514.2 437.3C557 424 600 412 642.8 414.5C685.7 417 728.3 434 771.2 447.2C814 460.3 857 469.7 878.5 474.3L900 479L900 601L878.5 601C857 601 814 601 771.2 601C728.3 601 685.7 601 642.8 601C600 601 557 601 514.2 601C471.3 601 428.7 601 385.8 601C343 601 300 601 257.2 601C214.3 601 171.7 601 128.8 601C86 601 43 601 21.5 601L0 601Z" fill="#bfaaa4"></path><path d="M0 504L21.5 503.2C43 502.3 86 500.7 128.8 500.8C171.7 501 214.3 503 257.2 501.7C300 500.3 343 495.7 385.8 496.2C428.7 496.7 471.3 502.3 514.2 495.2C557 488 600 468 642.8 463C685.7 458 728.3 468 771.2 476.5C814 485 857 492 878.5 495.5L900 499L900 601L878.5 601C857 601 814 601 771.2 601C728.3 601 685.7 601 642.8 601C600 601 557 601 514.2 601C471.3 601 428.7 601 385.8 601C343 601 300 601 257.2 601C214.3 601 171.7 601 128.8 601C86 601 43 601 21.5 601L0 601Z" fill="#8d807c"></path><path d="M0 486L21.5 493.5C43 501 86 516 128.8 518.2C171.7 520.3 214.3 509.7 257.2 502.7C300 495.7 343 492.3 385.8 494.5C428.7 496.7 471.3 504.3 514.2 512.2C557 520 600 528 642.8 526.2C685.7 524.3 728.3 512.7 771.2 512.2C814 511.7 857 522.3 878.5 527.7L900 533L900 601L878.5 601C857 601 814 601 771.2 601C728.3 601 685.7 601 642.8 601C600 601 557 601 514.2 601C471.3 601 428.7 601 385.8 601C343 601 300 601 257.2 601C214.3 601 171.7 601 128.8 601C86 601 43 601 21.5 601L0 601Z" fill="#5e5856"></path><path d="M0 544L21.5 545.3C43 546.7 86 549.3 128.8 553.2C171.7 557 214.3 562 257.2 561.7C300 561.3 343 555.7 385.8 550.2C428.7 544.7 471.3 539.3 514.2 537.3C557 535.3 600 536.7 642.8 536.8C685.7 537 728.3 536 771.2 534.8C814 533.7 857 532.3 878.5 531.7L900 531L900 601L878.5 601C857 601 814 601 771.2 601C728.3 601 685.7 601 642.8 601C600 601 557 601 514.2 601C471.3 601 428.7 601 385.8 601C343 601 300 601 257.2 601C214.3 601 171.7 601 128.8 601C86 601 43 601 21.5 601L0 601Z" fill="#333333"></path></svg>